# xmcd
#
# Track frame offsets: 
#        150
#        10431
#        21557
#        33269
#        38381
#        49835
#        63242
#        75192
#        86179
#        96284
#        109195
#        122069
#        125457
#        138861
#        152845
#        166447
#        180676
#        189230
#        203209
#        228250
#        242502
#        245690
#        260278
#        279500
#        297865
#        342739
#        346700
#
# Disc length: 4763 seconds
#
# Revision: 0
# Processed by: cddbd v1.5.2PL0 Copyright (c) Steve Scherf et al.
# Submitted via: ExactAudioCopy v0.95b3
#
DISCID=7712991b
DTITLE=The Monkees - The Monkees Complete 07 of 28
DYEAR=1900
DGENRE=
TTITLE0=For Pete's Sake (4.1 composite)
TTITLE1=Mr Webster (4.1 composite)
TTITLE2=Sunny Girlfriend (4.1 composite)
TTITLE3=Zilch (4.1 composite)
TTITLE4=No Time (4.1 composite)
TTITLE5=Early Morning Blues and Greens (4.1 composite)
TTITLE6=Randy Scouse Git (4.1 composite)
TTITLE7=99 Pounds
TTITLE8=99 Pounds (alt. mix)
TTITLE9=A Little Bit Me, A Little Bit You
TTITLE10=A Little Bit Me, A Little Bit You (single
TTITLE11=AFRC Radio Spot 1967
TTITLE12=All Of Your Toys
TTITLE13=All Of Your Toys (alt. mix 1)
TTITLE14=All Of Your Toys (alt. mix 2)
TTITLE15=All Of Your Toys (backing track)
TTITLE16=All Of Your Toys (rehearsal)
TTITLE17=All Of Your Toys (stereo mix)
TTITLE18=All Of Your Toys (tracking sessions)
TTITLE19=All Of Your Toys (4.1 composite)
TTITLE20=Band Six (stereo master)
TTITLE21=Banjo Jam (excerpt)
TTITLE22=Banjo Jam (full version)
TTITLE23=Blues (excerpt)
TTITLE24=Blues (full version)
TTITLE25=Boom Times Seven
TTITLE26=Can You Dig It (demo)
EXTD=
EXTT0=
EXTT1=
EXTT2=
EXTT3=
EXTT4=
EXTT5=
EXTT6=
EXTT7=
EXTT8=
EXTT9=
EXTT10=
EXTT11=
EXTT12=
EXTT13=
EXTT14=
EXTT15=
EXTT16=
EXTT17=
EXTT18=
EXTT19=
EXTT20=
EXTT21=
EXTT22=
EXTT23=
EXTT24=
EXTT25=
EXTT26=
PLAYORDER=
